<mxfile host="app.diagrams.net" agent="Mozilla/5.0 (Windows NT 10.0; Win64; x64) AppleWebKit/537.36 (KHTML, like Gecko) Chrome/136.0.0.0 Safari/537.36 Edg/136.0.0.0" version="27.1.1">
  <diagram name="Page-1" id="OEKFfMH_OTiZ_qOjaAbR">
    <mxGraphModel dx="1389" dy="708" grid="1" gridSize="10" guides="1" tooltips="1" connect="1" arrows="1" fold="1" page="1" pageScale="1" pageWidth="1400" pageHeight="850" math="0" shadow="0">
      <root>
        <mxCell id="0" />
        <mxCell id="1" parent="0" />
        <mxCell id="RjtxKORx6J7O7LgqOXKw-29" value="AWS Production" style="points=[[0,0],[0.25,0],[0.5,0],[0.75,0],[1,0],[1,0.25],[1,0.5],[1,0.75],[1,1],[0.75,1],[0.5,1],[0.25,1],[0,1],[0,0.75],[0,0.5],[0,0.25]];outlineConnect=0;gradientColor=none;html=1;whiteSpace=wrap;fontSize=12;fontStyle=0;container=1;pointerEvents=0;collapsible=0;recursiveResize=0;shape=mxgraph.aws4.group;grIcon=mxgraph.aws4.group_aws_cloud;strokeColor=#232F3E;fillColor=none;verticalAlign=top;align=left;spacingLeft=30;fontColor=#232F3E;dashed=0;" vertex="1" parent="1">
          <mxGeometry x="40" y="60" width="950" height="568" as="geometry" />
        </mxCell>
        <mxCell id="RjtxKORx6J7O7LgqOXKw-43" value="Jakarta (Ap-SouthEast-3)" style="sketch=0;outlineConnect=0;gradientColor=none;html=1;whiteSpace=wrap;fontSize=12;fontStyle=0;shape=mxgraph.aws4.group;grIcon=mxgraph.aws4.group_region;strokeColor=#879196;fillColor=none;verticalAlign=top;align=left;spacingLeft=30;fontColor=#879196;dashed=1;" vertex="1" parent="RjtxKORx6J7O7LgqOXKw-29">
          <mxGeometry x="25" y="23" width="905" height="530" as="geometry" />
        </mxCell>
        <mxCell id="RjtxKORx6J7O7LgqOXKw-93" value="" style="rounded=0;whiteSpace=wrap;html=1;" vertex="1" parent="RjtxKORx6J7O7LgqOXKw-29">
          <mxGeometry x="631" y="46" width="140" height="490" as="geometry" />
        </mxCell>
        <mxCell id="RjtxKORx6J7O7LgqOXKw-72" value="" style="group" vertex="1" connectable="0" parent="RjtxKORx6J7O7LgqOXKw-29">
          <mxGeometry x="140" y="89" width="130" height="431" as="geometry" />
        </mxCell>
        <mxCell id="RjtxKORx6J7O7LgqOXKw-73" value="Public subnet" style="points=[[0,0],[0.25,0],[0.5,0],[0.75,0],[1,0],[1,0.25],[1,0.5],[1,0.75],[1,1],[0.75,1],[0.5,1],[0.25,1],[0,1],[0,0.75],[0,0.5],[0,0.25]];outlineConnect=0;gradientColor=none;html=1;whiteSpace=wrap;fontSize=12;fontStyle=0;container=0;pointerEvents=0;collapsible=0;recursiveResize=0;shape=mxgraph.aws4.group;grIcon=mxgraph.aws4.group_security_group;grStroke=0;strokeColor=#7AA116;fillColor=#F2F6E8;verticalAlign=top;align=left;spacingLeft=30;fontColor=#248814;dashed=0;" vertex="1" parent="RjtxKORx6J7O7LgqOXKw-72">
          <mxGeometry y="141" width="130" height="290" as="geometry" />
        </mxCell>
        <mxCell id="RjtxKORx6J7O7LgqOXKw-74" value="Private subnet" style="points=[[0,0],[0.25,0],[0.5,0],[0.75,0],[1,0],[1,0.25],[1,0.5],[1,0.75],[1,1],[0.75,1],[0.5,1],[0.25,1],[0,1],[0,0.75],[0,0.5],[0,0.25]];outlineConnect=0;gradientColor=none;html=1;whiteSpace=wrap;fontSize=12;fontStyle=0;container=1;pointerEvents=0;collapsible=0;recursiveResize=0;shape=mxgraph.aws4.group;grIcon=mxgraph.aws4.group_security_group;grStroke=0;strokeColor=#00A4A6;fillColor=#E6F6F7;verticalAlign=top;align=left;spacingLeft=30;fontColor=#147EBA;dashed=0;" vertex="1" parent="RjtxKORx6J7O7LgqOXKw-72">
          <mxGeometry width="130" height="140" as="geometry" />
        </mxCell>
        <mxCell id="RjtxKORx6J7O7LgqOXKw-75" value="" style="group" vertex="1" connectable="0" parent="RjtxKORx6J7O7LgqOXKw-74">
          <mxGeometry x="36" y="40" width="65" height="70" as="geometry" />
        </mxCell>
        <mxCell id="RjtxKORx6J7O7LgqOXKw-76" value="" style="points=[];aspect=fixed;html=1;align=center;shadow=0;dashed=0;fillColor=#FF6A00;strokeColor=none;shape=mxgraph.alibaba_cloud.ecs_elastic_compute_service;" vertex="1" parent="RjtxKORx6J7O7LgqOXKw-75">
          <mxGeometry x="5.699999999999989" width="48.6" height="45.3" as="geometry" />
        </mxCell>
        <mxCell id="RjtxKORx6J7O7LgqOXKw-77" value="BackEnd I" style="text;html=1;align=center;verticalAlign=middle;whiteSpace=wrap;rounded=0;" vertex="1" parent="RjtxKORx6J7O7LgqOXKw-75">
          <mxGeometry y="40" width="65" height="30" as="geometry" />
        </mxCell>
        <mxCell id="RjtxKORx6J7O7LgqOXKw-78" value="" style="group" vertex="1" connectable="0" parent="RjtxKORx6J7O7LgqOXKw-72">
          <mxGeometry x="35" y="293" width="60" height="88" as="geometry" />
        </mxCell>
        <mxCell id="RjtxKORx6J7O7LgqOXKw-79" value="" style="sketch=0;points=[[0,0,0],[0.25,0,0],[0.5,0,0],[0.75,0,0],[1,0,0],[0,1,0],[0.25,1,0],[0.5,1,0],[0.75,1,0],[1,1,0],[0,0.25,0],[0,0.5,0],[0,0.75,0],[1,0.25,0],[1,0.5,0],[1,0.75,0]];outlineConnect=0;fontColor=#232F3E;fillColor=#ED7100;strokeColor=#ffffff;dashed=0;verticalLabelPosition=bottom;verticalAlign=top;align=center;html=1;fontSize=12;fontStyle=0;aspect=fixed;shape=mxgraph.aws4.resourceIcon;resIcon=mxgraph.aws4.auto_scaling2;" vertex="1" parent="RjtxKORx6J7O7LgqOXKw-78">
          <mxGeometry x="1" width="58" height="58" as="geometry" />
        </mxCell>
        <mxCell id="RjtxKORx6J7O7LgqOXKw-80" value="FrontEnd" style="text;html=1;align=center;verticalAlign=middle;whiteSpace=wrap;rounded=0;" vertex="1" parent="RjtxKORx6J7O7LgqOXKw-78">
          <mxGeometry y="58" width="60" height="30" as="geometry" />
        </mxCell>
        <mxCell id="RjtxKORx6J7O7LgqOXKw-81" value="" style="points=[];aspect=fixed;html=1;align=center;shadow=0;dashed=0;fillColor=#FF6A00;strokeColor=none;shape=mxgraph.alibaba_cloud.nlb_network_load_balancer_02;" vertex="1" parent="RjtxKORx6J7O7LgqOXKw-72">
          <mxGeometry x="50" y="401" width="30" height="30" as="geometry" />
        </mxCell>
        <mxCell id="RjtxKORx6J7O7LgqOXKw-82" value="" style="group" vertex="1" connectable="0" parent="RjtxKORx6J7O7LgqOXKw-72">
          <mxGeometry x="35" y="181" width="65" height="70" as="geometry" />
        </mxCell>
        <mxCell id="RjtxKORx6J7O7LgqOXKw-83" value="" style="points=[];aspect=fixed;html=1;align=center;shadow=0;dashed=0;fillColor=#FF6A00;strokeColor=none;shape=mxgraph.alibaba_cloud.ecs_elastic_compute_service;" vertex="1" parent="RjtxKORx6J7O7LgqOXKw-82">
          <mxGeometry x="5.699999999999989" width="48.6" height="45.3" as="geometry" />
        </mxCell>
        <mxCell id="RjtxKORx6J7O7LgqOXKw-84" value="BackEnd II" style="text;html=1;align=center;verticalAlign=middle;whiteSpace=wrap;rounded=0;" vertex="1" parent="RjtxKORx6J7O7LgqOXKw-82">
          <mxGeometry y="40" width="65" height="30" as="geometry" />
        </mxCell>
        <mxCell id="RjtxKORx6J7O7LgqOXKw-40" value="Public subnet" style="points=[[0,0],[0.25,0],[0.5,0],[0.75,0],[1,0],[1,0.25],[1,0.5],[1,0.75],[1,1],[0.75,1],[0.5,1],[0.25,1],[0,1],[0,0.75],[0,0.5],[0,0.25]];outlineConnect=0;gradientColor=none;html=1;whiteSpace=wrap;fontSize=12;fontStyle=0;container=0;pointerEvents=0;collapsible=0;recursiveResize=0;shape=mxgraph.aws4.group;grIcon=mxgraph.aws4.group_security_group;grStroke=0;strokeColor=#7AA116;fillColor=#F2F6E8;verticalAlign=top;align=left;spacingLeft=30;fontColor=#248814;dashed=0;" vertex="1" parent="RjtxKORx6J7O7LgqOXKw-29">
          <mxGeometry x="380" y="360" width="130" height="160" as="geometry" />
        </mxCell>
        <mxCell id="RjtxKORx6J7O7LgqOXKw-46" value="Private subnet" style="points=[[0,0],[0.25,0],[0.5,0],[0.75,0],[1,0],[1,0.25],[1,0.5],[1,0.75],[1,1],[0.75,1],[0.5,1],[0.25,1],[0,1],[0,0.75],[0,0.5],[0,0.25]];outlineConnect=0;gradientColor=none;html=1;whiteSpace=wrap;fontSize=12;fontStyle=0;container=1;pointerEvents=0;collapsible=0;recursiveResize=0;shape=mxgraph.aws4.group;grIcon=mxgraph.aws4.group_security_group;grStroke=0;strokeColor=#00A4A6;fillColor=#E6F6F7;verticalAlign=top;align=left;spacingLeft=30;fontColor=#147EBA;dashed=0;" vertex="1" parent="RjtxKORx6J7O7LgqOXKw-29">
          <mxGeometry x="380" y="89" width="130" height="271" as="geometry" />
        </mxCell>
        <mxCell id="RjtxKORx6J7O7LgqOXKw-50" value="" style="group" vertex="1" connectable="0" parent="RjtxKORx6J7O7LgqOXKw-46">
          <mxGeometry x="36" y="40" width="65" height="70" as="geometry" />
        </mxCell>
        <mxCell id="RjtxKORx6J7O7LgqOXKw-51" value="" style="points=[];aspect=fixed;html=1;align=center;shadow=0;dashed=0;fillColor=#FF6A00;strokeColor=none;shape=mxgraph.alibaba_cloud.ecs_elastic_compute_service;" vertex="1" parent="RjtxKORx6J7O7LgqOXKw-50">
          <mxGeometry x="5.699999999999989" width="48.6" height="45.3" as="geometry" />
        </mxCell>
        <mxCell id="RjtxKORx6J7O7LgqOXKw-52" value="Worker I" style="text;html=1;align=center;verticalAlign=middle;whiteSpace=wrap;rounded=0;" vertex="1" parent="RjtxKORx6J7O7LgqOXKw-50">
          <mxGeometry y="40" width="65" height="30" as="geometry" />
        </mxCell>
        <mxCell id="RjtxKORx6J7O7LgqOXKw-49" value="" style="group" vertex="1" connectable="0" parent="RjtxKORx6J7O7LgqOXKw-46">
          <mxGeometry x="31.5" y="175" width="65" height="70" as="geometry" />
        </mxCell>
        <mxCell id="RjtxKORx6J7O7LgqOXKw-47" value="" style="points=[];aspect=fixed;html=1;align=center;shadow=0;dashed=0;fillColor=#FF6A00;strokeColor=none;shape=mxgraph.alibaba_cloud.ecs_elastic_compute_service;" vertex="1" parent="RjtxKORx6J7O7LgqOXKw-49">
          <mxGeometry x="5.699999999999989" width="48.6" height="45.3" as="geometry" />
        </mxCell>
        <mxCell id="RjtxKORx6J7O7LgqOXKw-48" value="Worker II" style="text;html=1;align=center;verticalAlign=middle;whiteSpace=wrap;rounded=0;" vertex="1" parent="RjtxKORx6J7O7LgqOXKw-49">
          <mxGeometry y="40" width="65" height="30" as="geometry" />
        </mxCell>
        <mxCell id="RjtxKORx6J7O7LgqOXKw-56" value="" style="group" vertex="1" connectable="0" parent="RjtxKORx6J7O7LgqOXKw-29">
          <mxGeometry x="415" y="382" width="60" height="88" as="geometry" />
        </mxCell>
        <mxCell id="RjtxKORx6J7O7LgqOXKw-44" value="" style="sketch=0;points=[[0,0,0],[0.25,0,0],[0.5,0,0],[0.75,0,0],[1,0,0],[0,1,0],[0.25,1,0],[0.5,1,0],[0.75,1,0],[1,1,0],[0,0.25,0],[0,0.5,0],[0,0.75,0],[1,0.25,0],[1,0.5,0],[1,0.75,0]];outlineConnect=0;fontColor=#232F3E;fillColor=#ED7100;strokeColor=#ffffff;dashed=0;verticalLabelPosition=bottom;verticalAlign=top;align=center;html=1;fontSize=12;fontStyle=0;aspect=fixed;shape=mxgraph.aws4.resourceIcon;resIcon=mxgraph.aws4.auto_scaling2;" vertex="1" parent="RjtxKORx6J7O7LgqOXKw-56">
          <mxGeometry x="1" width="58" height="58" as="geometry" />
        </mxCell>
        <mxCell id="RjtxKORx6J7O7LgqOXKw-45" value="PII Scanner" style="text;html=1;align=center;verticalAlign=middle;whiteSpace=wrap;rounded=0;" vertex="1" parent="RjtxKORx6J7O7LgqOXKw-56">
          <mxGeometry y="58" width="60" height="30" as="geometry" />
        </mxCell>
        <mxCell id="RjtxKORx6J7O7LgqOXKw-39" value="" style="points=[];aspect=fixed;html=1;align=center;shadow=0;dashed=0;fillColor=#FF6A00;strokeColor=none;shape=mxgraph.alibaba_cloud.nlb_network_load_balancer_02;" vertex="1" parent="RjtxKORx6J7O7LgqOXKw-29">
          <mxGeometry x="430" y="490" width="30" height="30" as="geometry" />
        </mxCell>
        <mxCell id="RjtxKORx6J7O7LgqOXKw-58" value="" style="rounded=1;arcSize=10;dashed=1;strokeColor=#F59D56;fillColor=none;gradientColor=none;dashPattern=8 4;strokeWidth=2;" vertex="1" parent="RjtxKORx6J7O7LgqOXKw-29">
          <mxGeometry x="110" y="380" width="440" height="100" as="geometry" />
        </mxCell>
        <mxCell id="RjtxKORx6J7O7LgqOXKw-57" value="" style="rounded=1;arcSize=10;dashed=1;strokeColor=#F59D56;fillColor=none;gradientColor=none;dashPattern=8 4;strokeWidth=2;" vertex="1" parent="RjtxKORx6J7O7LgqOXKw-29">
          <mxGeometry x="110" y="250" width="440" height="100" as="geometry" />
        </mxCell>
        <mxCell id="RjtxKORx6J7O7LgqOXKw-55" value="" style="rounded=1;arcSize=10;dashed=1;strokeColor=#F59D56;fillColor=none;gradientColor=none;dashPattern=8 4;strokeWidth=2;" vertex="1" parent="RjtxKORx6J7O7LgqOXKw-29">
          <mxGeometry x="110" y="110" width="440" height="100" as="geometry" />
        </mxCell>
        <mxCell id="RjtxKORx6J7O7LgqOXKw-87" value="" style="group" vertex="1" connectable="0" parent="RjtxKORx6J7O7LgqOXKw-29">
          <mxGeometry x="70" y="49" width="270" height="481" as="geometry" />
        </mxCell>
        <mxCell id="RjtxKORx6J7O7LgqOXKw-86" value="App Server" style="fillColor=none;strokeColor=#5A6C86;dashed=1;verticalAlign=top;fontStyle=0;fontColor=#5A6C86;whiteSpace=wrap;html=1;" vertex="1" parent="RjtxKORx6J7O7LgqOXKw-87">
          <mxGeometry width="270" height="481" as="geometry" />
        </mxCell>
        <mxCell id="RjtxKORx6J7O7LgqOXKw-85" value="" style="sketch=0;points=[[0,0,0],[0.25,0,0],[0.5,0,0],[0.75,0,0],[1,0,0],[0,1,0],[0.25,1,0],[0.5,1,0],[0.75,1,0],[1,1,0],[0,0.25,0],[0,0.5,0],[0,0.75,0],[1,0.25,0],[1,0.5,0],[1,0.75,0]];outlineConnect=0;fontColor=#232F3E;fillColor=#ED7100;strokeColor=#ffffff;dashed=0;verticalLabelPosition=bottom;verticalAlign=top;align=center;html=1;fontSize=12;fontStyle=0;aspect=fixed;shape=mxgraph.aws4.resourceIcon;resIcon=mxgraph.aws4.eks_cloud;" vertex="1" parent="RjtxKORx6J7O7LgqOXKw-87">
          <mxGeometry width="40" height="40" as="geometry" />
        </mxCell>
        <mxCell id="RjtxKORx6J7O7LgqOXKw-88" value="" style="group" vertex="1" connectable="0" parent="RjtxKORx6J7O7LgqOXKw-29">
          <mxGeometry x="340" y="50" width="240" height="481" as="geometry" />
        </mxCell>
        <mxCell id="RjtxKORx6J7O7LgqOXKw-89" value="PII Discovery" style="fillColor=none;strokeColor=#5A6C86;dashed=1;verticalAlign=top;fontStyle=0;fontColor=#5A6C86;whiteSpace=wrap;html=1;" vertex="1" parent="RjtxKORx6J7O7LgqOXKw-88">
          <mxGeometry width="240" height="481" as="geometry" />
        </mxCell>
        <mxCell id="RjtxKORx6J7O7LgqOXKw-90" value="" style="sketch=0;points=[[0,0,0],[0.25,0,0],[0.5,0,0],[0.75,0,0],[1,0,0],[0,1,0],[0.25,1,0],[0.5,1,0],[0.75,1,0],[1,1,0],[0,0.25,0],[0,0.5,0],[0,0.75,0],[1,0.25,0],[1,0.5,0],[1,0.75,0]];outlineConnect=0;fontColor=#232F3E;fillColor=#ED7100;strokeColor=#ffffff;dashed=0;verticalLabelPosition=bottom;verticalAlign=top;align=center;html=1;fontSize=12;fontStyle=0;aspect=fixed;shape=mxgraph.aws4.resourceIcon;resIcon=mxgraph.aws4.eks_cloud;" vertex="1" parent="RjtxKORx6J7O7LgqOXKw-88">
          <mxGeometry width="36.92307692307693" height="36.92307692307693" as="geometry" />
        </mxCell>
        <mxCell id="RjtxKORx6J7O7LgqOXKw-94" value="" style="endArrow=classic;startArrow=classic;html=1;rounded=0;exitX=1;exitY=0.5;exitDx=0;exitDy=0;" edge="1" parent="RjtxKORx6J7O7LgqOXKw-29" source="RjtxKORx6J7O7LgqOXKw-89" target="RjtxKORx6J7O7LgqOXKw-93">
          <mxGeometry width="50" height="50" relative="1" as="geometry">
            <mxPoint x="530" y="360" as="sourcePoint" />
            <mxPoint x="580" y="310" as="targetPoint" />
          </mxGeometry>
        </mxCell>
        <mxCell id="RjtxKORx6J7O7LgqOXKw-95" value="Data" style="text;html=1;align=center;verticalAlign=middle;whiteSpace=wrap;rounded=0;" vertex="1" parent="RjtxKORx6J7O7LgqOXKw-29">
          <mxGeometry x="671" y="51" width="60" height="30" as="geometry" />
        </mxCell>
        <mxCell id="RjtxKORx6J7O7LgqOXKw-96" value="Amazon S3" style="sketch=0;outlineConnect=0;fontColor=#232F3E;gradientColor=none;strokeColor=#ffffff;fillColor=#232F3E;dashed=0;verticalLabelPosition=middle;verticalAlign=bottom;align=center;html=1;whiteSpace=wrap;fontSize=10;fontStyle=1;spacing=3;shape=mxgraph.aws4.productIcon;prIcon=mxgraph.aws4.s3;" vertex="1" parent="RjtxKORx6J7O7LgqOXKw-29">
          <mxGeometry x="661" y="101" width="80" height="100" as="geometry" />
        </mxCell>
        <mxCell id="RjtxKORx6J7O7LgqOXKw-97" value="Amazon RDS" style="sketch=0;outlineConnect=0;fontColor=#232F3E;gradientColor=none;strokeColor=#ffffff;fillColor=#232F3E;dashed=0;verticalLabelPosition=middle;verticalAlign=bottom;align=center;html=1;whiteSpace=wrap;fontSize=10;fontStyle=1;spacing=3;shape=mxgraph.aws4.productIcon;prIcon=mxgraph.aws4.rds;" vertex="1" parent="RjtxKORx6J7O7LgqOXKw-29">
          <mxGeometry x="661" y="238" width="80" height="100" as="geometry" />
        </mxCell>
        <mxCell id="RjtxKORx6J7O7LgqOXKw-38" value="" style="edgeStyle=orthogonalEdgeStyle;rounded=0;orthogonalLoop=1;jettySize=auto;html=1;" edge="1" parent="1" source="RjtxKORx6J7O7LgqOXKw-37" target="RjtxKORx6J7O7LgqOXKw-34">
          <mxGeometry relative="1" as="geometry" />
        </mxCell>
        <mxCell id="RjtxKORx6J7O7LgqOXKw-37" value="" style="verticalLabelPosition=bottom;shadow=0;dashed=0;align=center;html=1;verticalAlign=top;strokeWidth=1;shape=mxgraph.mockup.containers.userMale;strokeColor=#666666;strokeColor2=#008cff;" vertex="1" parent="1">
          <mxGeometry x="324.25" y="690" width="100" height="100" as="geometry" />
        </mxCell>
        <mxCell id="RjtxKORx6J7O7LgqOXKw-34" value="" style="outlineConnect=0;dashed=0;verticalLabelPosition=bottom;verticalAlign=top;align=center;html=1;shape=mxgraph.aws3.vpn_connection;fillColor=#F58536;gradientColor=none;" vertex="1" parent="1">
          <mxGeometry x="345" y="620" width="58.5" height="48" as="geometry" />
        </mxCell>
        <mxCell id="RjtxKORx6J7O7LgqOXKw-91" value="" style="endArrow=classic;html=1;rounded=0;" edge="1" parent="1" source="RjtxKORx6J7O7LgqOXKw-34">
          <mxGeometry width="50" height="50" relative="1" as="geometry">
            <mxPoint x="540" y="540" as="sourcePoint" />
            <mxPoint x="470" y="580" as="targetPoint" />
          </mxGeometry>
        </mxCell>
        <mxCell id="RjtxKORx6J7O7LgqOXKw-92" value="" style="endArrow=classic;html=1;rounded=0;entryX=0.204;entryY=0.938;entryDx=0;entryDy=0;entryPerimeter=0;" edge="1" parent="1" source="RjtxKORx6J7O7LgqOXKw-34" target="RjtxKORx6J7O7LgqOXKw-43">
          <mxGeometry width="50" height="50" relative="1" as="geometry">
            <mxPoint x="414" y="634" as="sourcePoint" />
            <mxPoint x="300" y="660" as="targetPoint" />
          </mxGeometry>
        </mxCell>
      </root>
    </mxGraphModel>
  </diagram>
</mxfile>
